<?xml version="1.0" encoding="UTF-8" standalone="no"?>
<!-- Created with Inkscape (http://www.inkscape.org/) -->

<svg
   width="32"
   height="32"
   viewBox="0 0 32 32"
   version="1.1"
   id="svg5"
   xmlns="http://www.w3.org/2000/svg"
   xmlns:svg="http://www.w3.org/2000/svg">
  <defs
     id="defs2" />
  <g
     id="layer1">
    <circle
       style="fill:#e1609a;fill-opacity:1;stroke:#d9d9d9;stroke-width:0.969697;stroke-opacity:1"
       id="path111"
       cx="16"
       cy="16"
       r="15.515152" />
    <path
       id="path2739"
       style="fill:#ea91bd;fill-opacity:1;stroke:none;stroke-opacity:1"
       d="m 5.5527344,16.888672 a 4.7585392,4.7585392 0 0 0 -4.140625,2.439453 15,15 0 0 0 3.8125,7.054687 4.7585392,4.7585392 0 0 0 0.328125,0.02344 A 4.7585392,4.7585392 0 0 0 10.3125,21.648438 4.7585392,4.7585392 0 0 0 5.5527344,16.888672 Z" />
    <path
       id="path2731"
       style="fill:#d83285;fill-opacity:1;stroke:none;stroke-opacity:1"
       d="m 21.998047,2.2558594 a 8.8773689,8.8773689 0 0 0 -4.675781,7.7949216 8.8773689,8.8773689 0 0 0 8.876953,8.876953 8.8773689,8.8773689 0 0 0 4.6875,-1.349609 A 15,15 0 0 0 31,16 15,15 0 0 0 21.998047,2.2558594 Z" />
    <text
       xml:space="preserve"
       style="font-style:normal;font-variant:normal;font-weight:600;font-stretch:normal;font-size:8px;font-family:Ubuntu;-inkscape-font-specification:'Ubuntu, Semi-Bold';font-variant-ligatures:normal;font-variant-caps:normal;font-variant-numeric:normal;font-variant-east-asian:normal;fill:#d9d9d9;fill-opacity:1;stroke:none;stroke-opacity:1"
       x="8.5439997"
       y="24.208"
       id="text1916"><tspan
         id="tspan1914"
         x="8.5439997"
         y="24.208">info</tspan></text>
    <text
       xml:space="preserve"
       style="font-style:normal;font-variant:normal;font-weight:600;font-stretch:normal;font-size:14.6667px;font-family:Ubuntu;-inkscape-font-specification:'Ubuntu, Semi-Bold';font-variant-ligatures:normal;font-variant-caps:normal;font-variant-numeric:normal;font-variant-east-asian:normal;fill:#d9d9d9;fill-opacity:1;stroke:none;stroke-opacity:1"
       x="9.553998"
       y="16.164022"
       id="text1829"><tspan
         id="tspan1827"
         x="9.553998"
         y="16.164022"
         style="font-style:normal;font-variant:normal;font-weight:600;font-stretch:normal;font-size:14.6667px;font-family:Ubuntu;-inkscape-font-specification:'Ubuntu, Semi-Bold';font-variant-ligatures:normal;font-variant-caps:normal;font-variant-numeric:normal;font-variant-east-asian:normal;fill:#d9d9d9;fill-opacity:1;stroke:none;stroke-opacity:1">o!</tspan></text>
    <path
       id="path6757-6"
       style="fill:#efadcd;fill-opacity:1;stroke:none;stroke-opacity:1"
       d="M 11.845703,1.5917969 A 15,15 0 0 0 1.7695312,11.339844 8.0916824,8.2251053 0 0 0 3.9609375,11.654297 8.0916824,8.2251053 0 0 0 12.052734,3.4277344 8.0916824,8.2251053 0 0 0 11.845703,1.5917969 Z" />
    <path
       id="path6757"
       style="fill:#9b1f5b;fill-opacity:1;stroke:none;stroke-opacity:1"
       d="m 26.226562,25.779297 a 6.0740309,6.0740309 0 0 0 -5.873046,4.566406 15,15 0 0 0 6.93164,-4.472656 6.0740309,6.0740309 0 0 0 -1.058594,-0.09375 z" />
  </g>
</svg>
